<svg width="34" height="15" fill="none" xmlns="http://www.w3.org/2000/svg"><path fill-rule="evenodd" clip-rule="evenodd" d="M4.968 2.911c.618.053 1.236-.317 1.622-.786.38-.483.63-1.13.566-1.791-.547.026-1.223.37-1.609.852-.354.417-.656 1.09-.579 1.725zm7.35 8.511V1.119h3.764c1.943 0 3.301 1.375 3.301 3.384S18 7.9 16.03 7.9h-2.155v3.522h-1.558zM7.15 3.035c-.545-.032-1.041.168-1.442.33-.258.104-.477.192-.643.192-.187 0-.415-.093-.67-.197-.335-.137-.718-.293-1.12-.285-.92.013-1.775.548-2.245 1.4-.965 1.706-.251 4.23.682 5.618.457.687 1.004 1.44 1.725 1.414.317-.012.545-.112.78-.215.273-.118.555-.241.996-.241.425 0 .695.12.954.235.247.11.483.214.835.208.746-.014 1.216-.688 1.673-1.375.493-.737.71-1.457.742-1.567l.004-.012-.017-.009c-.165-.077-1.425-.67-1.437-2.258-.012-1.333 1-2.008 1.158-2.115a.495.495 0 00.02-.013c-.644-.978-1.648-1.084-1.995-1.11zM22.227 11.5c.978 0 1.886-.51 2.298-1.316h.032v1.236h1.441V6.293c0-1.487-1.158-2.445-2.94-2.445-1.654 0-2.877.971-2.922 2.306h1.403c.116-.634.688-1.05 1.473-1.05.953 0 1.487.456 1.487 1.295v.568l-1.944.12c-1.808.111-2.786.871-2.786 2.193 0 1.335 1.01 2.22 2.458 2.22zm.42-1.223c-.831 0-1.359-.41-1.359-1.038 0-.647.509-1.024 1.48-1.084l1.732-.112v.582c0 .964-.799 1.652-1.854 1.652zm8.133 1.55c-.625 1.805-1.339 2.4-2.858 2.4-.115 0-.502-.014-.591-.04v-1.236c.096.013.334.026.456.026.689 0 1.075-.297 1.313-1.07l.142-.456-2.639-7.5h1.628l1.834 6.086h.032l1.834-6.087h1.584l-2.735 7.877zm-16.905-9.36h1.796c1.351 0 2.123.74 2.123 2.042 0 1.302-.772 2.049-2.13 2.049h-1.789v-4.09z" fill="#000"/></svg>