<svg width="34" height="14" viewBox="0 0 34 14" fill="none" xmlns="http://www.w3.org/2000/svg">
<path fill-rule="evenodd" clip-rule="evenodd" d="M15.7257 11.0061V6.97813H17.7749C18.6146 6.97813 19.3233 6.69268 19.9011 6.12972L20.0398 5.987C21.0952 4.82143 21.0258 3.00569 19.9011 1.92734C19.3387 1.35645 18.5683 1.04722 17.7749 1.06308H14.4854V11.0061H15.7257ZM15.7256 5.75497V2.28206H17.8059C18.2528 2.28206 18.6766 2.4565 18.9925 2.77366C19.6628 3.4397 19.6782 4.54976 19.031 5.23959C18.7151 5.58053 18.2682 5.77083 17.8059 5.75497H15.7256ZM25.8264 4.73527C25.2948 4.23574 24.5707 3.98201 23.6539 3.98201C22.4753 3.98201 21.5893 4.42604 21.0038 5.30616L22.0978 6.01184C22.4984 5.40924 23.0453 5.10793 23.7387 5.10793C24.1778 5.10793 24.6015 5.27444 24.9328 5.57575C25.2563 5.86119 25.4412 6.2735 25.4412 6.7096V7.00297C24.9636 6.73338 24.3627 6.59066 23.6231 6.59066C22.7603 6.59066 22.067 6.79681 21.5508 7.21705C21.0346 7.63729 20.7727 8.19232 20.7727 8.898C20.7573 9.54025 21.0269 10.1508 21.5046 10.5631C21.9899 11.0071 22.6062 11.2291 23.3304 11.2291C24.1855 11.2291 24.8634 10.8406 25.3796 10.0636H25.4335V11.0071H26.6199V6.81267C26.6199 5.93255 26.3579 5.2348 25.8264 4.73527ZM22.4595 9.75322C22.2052 9.56293 22.0511 9.2537 22.0511 8.92068C22.0511 8.54801 22.2206 8.23878 22.5519 7.99298C22.8909 7.74718 23.3147 7.62032 23.8155 7.62032C24.509 7.61239 25.0483 7.77097 25.4336 8.08813C25.4336 8.6273 25.2255 9.09512 24.8172 9.49157C24.4473 9.87216 23.9465 10.0862 23.4226 10.0862C23.0758 10.0942 22.7368 9.97524 22.4595 9.75322ZM29.283 13.9973L33.4276 4.20496H32.0795L30.1613 9.08923H30.1381L28.1737 4.20496H26.8255L29.545 10.572L28.0042 13.9973H29.283Z" fill="#3C4043"/>
<path d="M11.4424 6.10685C11.4424 5.71833 11.4116 5.32981 11.35 4.94922H6.11914V7.14556H9.1159C8.99264 7.85124 8.59205 8.48556 8.00656 8.88201V10.3092H9.79384C10.8415 9.31811 11.4424 7.85124 11.4424 6.10685Z" fill="#4285F4"/>
<path d="M6.11953 11.6948C7.61406 11.6948 8.87748 11.1873 9.79423 10.3151L8.00696 8.88789C7.50621 9.23677 6.8668 9.435 6.11953 9.435C4.67123 9.435 3.44633 8.42801 3.00721 7.08008H1.16602V8.55487C2.10587 10.4816 4.02411 11.6948 6.11953 11.6948Z" fill="#34A853"/>
<path d="M3.00799 7.0752C2.77684 6.36952 2.77684 5.6004 3.00799 4.88679V3.41992H1.1665C0.372886 5.02951 0.372886 6.93248 1.1665 8.54207L3.00799 7.0752Z" fill="#FBBC04"/>
<path d="M6.11953 2.53355C6.91302 2.51769 7.67569 2.82693 8.24577 3.38989L9.83275 1.75651C8.82355 0.789168 7.49851 0.257925 6.11953 0.273783C4.02411 0.273783 2.10587 1.49485 1.16602 3.4216L3.00721 4.8964C3.44633 3.54054 4.67123 2.53355 6.11953 2.53355Z" fill="#EA4335"/>
</svg>
