<svg width="31" height="20" fill="none" xmlns="http://www.w3.org/2000/svg"><path fill-rule="evenodd" clip-rule="evenodd" d="M15.328 16.875a8.8 8.8 0 01-5.818 2.199c-4.953 0-8.968-4.12-8.968-9.204C.542 4.787 4.557.666 9.51.666a8.8 8.8 0 015.818 2.199A8.799 8.799 0 0121.145.666c4.954 0 8.969 4.121 8.969 9.204 0 5.084-4.015 9.204-8.969 9.204a8.8 8.8 0 01-5.817-2.199z" fill="#ED0006"/><path fill-rule="evenodd" clip-rule="evenodd" d="M15.326 16.876a9.284 9.284 0 003.152-7.006 9.284 9.284 0 00-3.152-7.006A8.8 8.8 0 0121.142.666c4.954 0 8.969 4.12 8.969 9.204 0 5.083-4.015 9.204-8.969 9.204a8.8 8.8 0 01-5.816-2.198z" fill="#F9A000"/><path fill-rule="evenodd" clip-rule="evenodd" d="M15.329 16.875a9.284 9.284 0 003.15-7.005 9.284 9.284 0 00-3.15-7.005 9.284 9.284 0 00-3.151 7.005 9.284 9.284 0 003.15 7.005z" fill="#FF5E00"/></svg>