<svg width="34" height="12" fill="none" xmlns="http://www.w3.org/2000/svg"><path fill-rule="evenodd" clip-rule="evenodd" d="M24.174.438c-.744 0-1.348.61-1.348 1.36 0 .753.604 1.36 1.348 1.36.745 0 1.348-.607 1.348-1.36 0-.75-.603-1.36-1.348-1.36zM4.73 4.997c-.346-.022-1.146-.075-1.146-.802 0-.877 1.152-.877 1.584-.877.76 0 1.744.226 2.448.439 0 0 .391.14.724.282l.032.009V1.645l-.042-.013c-.83-.293-1.795-.574-3.583-.574C1.664 1.058.57 2.87.57 4.423c0 .895.38 3.003 3.91 3.246h.004c.302.019 1.091.067 1.091.816 0 .62-.65.986-1.744.986a8.507 8.507 0 01-3.068-.6v2.474c1.057.28 2.25.42 3.647.42 3.014 0 4.364-1.715 4.364-3.416 0-1.927-1.51-3.179-4.045-3.35zm9.098-1.068l.014-.036h3.229a12.547 12.547 0 01-1.982 3.767s1.463 2.587 1.797 3.99h-3.38s-.404-1.863-1.221-3.1v3.1H9.462V1.62l2.823-.563V6.59a9.615 9.615 0 001.543-2.66zm16.866 7.72V1.552l2.735-.493V11.65h-2.736zM21.261 3.79c-2.527.082-3.81 1.227-3.81 3.503v4.358h2.757V8.095c0-1.362.177-1.946 1.779-2.001V3.829c-.27-.058-.726-.04-.726-.04zm1.543 7.859V3.9h2.735v7.748h-2.735zM26.7 1.55l2.734-.493V11.65H26.7V1.55z" fill="#862165"/></svg>