<svg width="35" height="16" fill="none" xmlns="http://www.w3.org/2000/svg"><path fill-rule="evenodd" clip-rule="evenodd" d="M18.716 2.858l-2.337.509V1.445l2.337-.5v1.913zm-9.497-.822l-2.272.49-.01 7.546c0 1.395 1.034 2.421 2.412 2.421.763 0 1.322-.14 1.63-.31V10.27c-.299.122-1.77.556-1.77-.839V6.087h1.77V4.08h-1.77l.01-2.044zm24.867 6.2c0-2.411-1.155-4.314-3.361-4.314-2.216 0-3.556 1.903-3.556 4.296 0 2.836 1.582 4.268 3.854 4.268 1.108 0 1.946-.255 2.579-.613V9.99c-.633.32-1.36.518-2.281.518-.903 0-1.704-.32-1.806-1.432h4.552c0-.052.003-.17.007-.306.006-.184.012-.402.012-.532zm-4.6-.895c0-1.064.643-1.507 1.23-1.507.567 0 1.172.443 1.172 1.507h-2.402zM3.718 5.966c-.493 0-.791.142-.791.51 0 .4.512.577 1.148.796 1.037.357 2.402.826 2.408 2.567 0 1.686-1.331 2.656-3.268 2.656-.8 0-1.676-.16-2.541-.537V9.716c.782.433 1.769.754 2.541.754.522 0 .894-.142.894-.575 0-.444-.556-.647-1.227-.893C1.86 8.63.572 8.158.572 6.588c0-1.667 1.256-2.666 3.146-2.666.773 0 1.536.122 2.309.433V6.57c-.708-.386-1.602-.603-2.31-.603zm10.157-1.188l-.149-.697h-2.01v8.244h2.327V6.738c.549-.725 1.48-.593 1.769-.49V4.081c-.298-.113-1.388-.32-1.937.697zm2.504-.696h2.337v8.244h-2.337V4.082zm5.37.575c.326-.302.913-.735 1.825-.735 1.63 0 3.165 1.488 3.175 4.22 0 2.987-1.518 4.344-3.184 4.344-.82 0-1.313-.349-1.648-.594l-.01 2.667-2.327.499V4.072h2.048l.121.585zm.169 5.315c.223.245.549.442 1.098.442.857 0 1.434-.942 1.434-2.204 0-1.234-.587-2.195-1.434-2.195-.53 0-.866.188-1.108.461l.01 3.496z" fill="#6461FC"/></svg>