<svg width="34" height="11" fill="none" xmlns="http://www.w3.org/2000/svg"><path fill-rule="evenodd" clip-rule="evenodd" d="M8.965 10.678H6.18L4.089 2.59c-.1-.372-.31-.701-.62-.856A8.982 8.982 0 00.915.878V.567h4.49c.619 0 1.083.467 1.16 1.01L7.65 7.413 10.435.567h2.71l-4.18 10.11zm5.729 0h-2.632L14.229.567h2.632l-2.168 10.11zm5.573-7.31c.077-.544.542-.856 1.084-.856a4.843 4.843 0 012.555.467L24.37.802a6.579 6.579 0 00-2.4-.468c-2.554 0-4.412 1.4-4.412 3.344 0 1.479 1.316 2.255 2.246 2.723 1.005.467 1.392.778 1.315 1.244 0 .7-.775 1.011-1.548 1.011-.93 0-1.859-.233-2.709-.622l-.465 2.178c.93.388 1.935.545 2.865.545 2.864.076 4.643-1.323 4.643-3.423 0-2.645-3.638-2.8-3.638-3.966zm12.847 7.31L31.024.567H28.78c-.465 0-.93.31-1.085.777l-3.87 9.334h2.71l.54-1.478h3.33l.31 1.478h2.399zM29.168 3.29l.773 3.81h-2.167l1.394-3.81z" fill="#172B85"/></svg>